<mxfile host="app.diagrams.net" modified="2022-11-19T14:40:48.521Z" agent="5.0 (Windows NT 10.0; Win64; x64) AppleWebKit/537.36 (KHTML, like Gecko) Chrome/107.0.0.0 Safari/537.36" etag="wE9C7w5TdkoQ1JRdBKN7" version="20.5.3" type="github">
  <diagram id="a3mIXMUFAWPNfLQ5zWq7" name="Страница 1">
    <mxGraphModel dx="1038" dy="1740" grid="1" gridSize="10" guides="1" tooltips="1" connect="1" arrows="1" fold="1" page="1" pageScale="1" pageWidth="827" pageHeight="1169" math="0" shadow="0">
      <root>
        <mxCell id="0" />
        <mxCell id="1" parent="0" />
        <mxCell id="Q-hOX0LVtWuQFFk8Bp9k-7" style="edgeStyle=orthogonalEdgeStyle;rounded=0;orthogonalLoop=1;jettySize=auto;html=1;entryX=0.5;entryY=0;entryDx=0;entryDy=0;" edge="1" parent="1" source="Q-hOX0LVtWuQFFk8Bp9k-1" target="Q-hOX0LVtWuQFFk8Bp9k-5">
          <mxGeometry relative="1" as="geometry" />
        </mxCell>
        <mxCell id="Q-hOX0LVtWuQFFk8Bp9k-1" value="Register" style="rounded=0;whiteSpace=wrap;html=1;" vertex="1" parent="1">
          <mxGeometry x="40" y="-1160" width="120" height="60" as="geometry" />
        </mxCell>
        <mxCell id="Q-hOX0LVtWuQFFk8Bp9k-9" style="edgeStyle=orthogonalEdgeStyle;rounded=0;orthogonalLoop=1;jettySize=auto;html=1;entryX=0.5;entryY=0;entryDx=0;entryDy=0;" edge="1" parent="1" source="Q-hOX0LVtWuQFFk8Bp9k-2" target="Q-hOX0LVtWuQFFk8Bp9k-6">
          <mxGeometry relative="1" as="geometry" />
        </mxCell>
        <mxCell id="Q-hOX0LVtWuQFFk8Bp9k-2" value="Login" style="rounded=0;whiteSpace=wrap;html=1;" vertex="1" parent="1">
          <mxGeometry x="240" y="-1160" width="120" height="60" as="geometry" />
        </mxCell>
        <mxCell id="Q-hOX0LVtWuQFFk8Bp9k-12" style="edgeStyle=orthogonalEdgeStyle;rounded=0;orthogonalLoop=1;jettySize=auto;html=1;fillColor=#dae8fc;strokeColor=#0600BF;" edge="1" parent="1" source="Q-hOX0LVtWuQFFk8Bp9k-3" target="Q-hOX0LVtWuQFFk8Bp9k-11">
          <mxGeometry relative="1" as="geometry">
            <Array as="points">
              <mxPoint x="500" y="-1000" />
              <mxPoint x="80" y="-1000" />
            </Array>
          </mxGeometry>
        </mxCell>
        <mxCell id="Q-hOX0LVtWuQFFk8Bp9k-3" value="Home page&lt;span style=&quot;color: rgba(0, 0, 0, 0); font-family: monospace; font-size: 0px; text-align: start;&quot;&gt;%3CmxGraphModel%3E%3Croot%3E%3CmxCell%20id%3D%220%22%2F%3E%3CmxCell%20id%3D%221%22%20parent%3D%220%22%2F%3E%3CmxCell%20id%3D%222%22%20value%3D%22Login%22%20style%3D%22rounded%3D0%3BwhiteSpace%3Dwrap%3Bhtml%3D1%3B%22%20vertex%3D%221%22%20parent%3D%221%22%3E%3CmxGeometry%20x%3D%22200%22%20y%3D%22-1160%22%20width%3D%22120%22%20height%3D%2260%22%20as%3D%22geometry%22%2F%3E%3C%2FmxCell%3E%3C%2Froot%3E%3C%2FmxGraphModel%3E&lt;/span&gt;" style="rounded=0;whiteSpace=wrap;html=1;" vertex="1" parent="1">
          <mxGeometry x="440" y="-1160" width="120" height="60" as="geometry" />
        </mxCell>
        <mxCell id="Q-hOX0LVtWuQFFk8Bp9k-117" style="edgeStyle=orthogonalEdgeStyle;rounded=0;orthogonalLoop=1;jettySize=auto;html=1;entryX=0.383;entryY=0;entryDx=0;entryDy=0;entryPerimeter=0;strokeColor=#0600BF;fontSize=10;" edge="1" parent="1" source="Q-hOX0LVtWuQFFk8Bp9k-4" target="Q-hOX0LVtWuQFFk8Bp9k-116">
          <mxGeometry relative="1" as="geometry" />
        </mxCell>
        <mxCell id="Q-hOX0LVtWuQFFk8Bp9k-4" value="Admin page" style="rounded=0;whiteSpace=wrap;html=1;" vertex="1" parent="1">
          <mxGeometry x="600" y="-1160" width="120" height="60" as="geometry" />
        </mxCell>
        <mxCell id="Q-hOX0LVtWuQFFk8Bp9k-8" style="edgeStyle=orthogonalEdgeStyle;rounded=0;orthogonalLoop=1;jettySize=auto;html=1;entryX=0;entryY=0.5;entryDx=0;entryDy=0;" edge="1" parent="1" source="Q-hOX0LVtWuQFFk8Bp9k-5" target="Q-hOX0LVtWuQFFk8Bp9k-2">
          <mxGeometry relative="1" as="geometry" />
        </mxCell>
        <mxCell id="Q-hOX0LVtWuQFFk8Bp9k-5" value="Tokin" style="rounded=0;whiteSpace=wrap;html=1;fillColor=#d5e8d4;strokeColor=#82b366;" vertex="1" parent="1">
          <mxGeometry x="40" y="-1070" width="120" height="30" as="geometry" />
        </mxCell>
        <mxCell id="Q-hOX0LVtWuQFFk8Bp9k-10" style="edgeStyle=orthogonalEdgeStyle;rounded=0;orthogonalLoop=1;jettySize=auto;html=1;entryX=0;entryY=0.5;entryDx=0;entryDy=0;" edge="1" parent="1" source="Q-hOX0LVtWuQFFk8Bp9k-6" target="Q-hOX0LVtWuQFFk8Bp9k-3">
          <mxGeometry relative="1" as="geometry" />
        </mxCell>
        <mxCell id="Q-hOX0LVtWuQFFk8Bp9k-6" value="Tokin" style="rounded=0;whiteSpace=wrap;html=1;fillColor=#d5e8d4;strokeColor=#82b366;" vertex="1" parent="1">
          <mxGeometry x="240" y="-1070" width="120" height="30" as="geometry" />
        </mxCell>
        <mxCell id="Q-hOX0LVtWuQFFk8Bp9k-11" value="" style="rounded=0;whiteSpace=wrap;html=1;" vertex="1" parent="1">
          <mxGeometry x="20" y="-960" width="430" height="260" as="geometry" />
        </mxCell>
        <mxCell id="Q-hOX0LVtWuQFFk8Bp9k-13" value="home" style="text;html=1;strokeColor=none;fillColor=none;align=center;verticalAlign=middle;whiteSpace=wrap;rounded=0;" vertex="1" parent="1">
          <mxGeometry x="30" y="-950" width="60" height="30" as="geometry" />
        </mxCell>
        <mxCell id="Q-hOX0LVtWuQFFk8Bp9k-14" value="" style="rounded=1;whiteSpace=wrap;html=1;" vertex="1" parent="1">
          <mxGeometry x="160" y="-945" width="120" height="20" as="geometry" />
        </mxCell>
        <mxCell id="Q-hOX0LVtWuQFFk8Bp9k-15" value="search" style="text;html=1;strokeColor=none;fillColor=none;align=center;verticalAlign=middle;whiteSpace=wrap;rounded=0;" vertex="1" parent="1">
          <mxGeometry x="160" y="-950" width="60" height="30" as="geometry" />
        </mxCell>
        <mxCell id="Q-hOX0LVtWuQFFk8Bp9k-17" value="Basket" style="html=1;shadow=0;dashed=0;shape=mxgraph.bootstrap.rrect;rSize=5;strokeColor=none;strokeWidth=1;fillColor=#0085FC;fontColor=#FFFFFF;whiteSpace=wrap;align=left;verticalAlign=middle;spacingLeft=0;fontStyle=1;fontSize=14;spacing=5;" vertex="1" parent="1">
          <mxGeometry x="360" y="-945" width="60" height="20" as="geometry" />
        </mxCell>
        <mxCell id="Q-hOX0LVtWuQFFk8Bp9k-75" value="" style="rounded=0;whiteSpace=wrap;html=1;" vertex="1" parent="1">
          <mxGeometry x="40" y="-880" width="90" height="100" as="geometry" />
        </mxCell>
        <mxCell id="Q-hOX0LVtWuQFFk8Bp9k-76" value="" style="rounded=0;whiteSpace=wrap;html=1;fillColor=#fff2cc;strokeColor=#d6b656;" vertex="1" parent="1">
          <mxGeometry x="40" y="-880" width="90" height="50" as="geometry" />
        </mxCell>
        <mxCell id="Q-hOX0LVtWuQFFk8Bp9k-77" value="name" style="text;html=1;strokeColor=none;fillColor=none;align=center;verticalAlign=middle;whiteSpace=wrap;rounded=0;" vertex="1" parent="1">
          <mxGeometry x="30" y="-830" width="60" height="30" as="geometry" />
        </mxCell>
        <mxCell id="Q-hOX0LVtWuQFFk8Bp9k-78" value="&lt;font style=&quot;font-size: 10px;&quot;&gt;karzina&lt;/font&gt;" style="html=1;shadow=0;dashed=0;shape=mxgraph.bootstrap.rrect;rSize=5;strokeColor=none;strokeWidth=1;fillColor=#1CA5B8;fontColor=#FFFFFF;whiteSpace=wrap;align=left;verticalAlign=middle;spacingLeft=0;fontStyle=1;fontSize=14;spacing=5;" vertex="1" parent="1">
          <mxGeometry x="80" y="-810" width="40" height="20" as="geometry" />
        </mxCell>
        <mxCell id="Q-hOX0LVtWuQFFk8Bp9k-79" value="" style="rounded=0;whiteSpace=wrap;html=1;" vertex="1" parent="1">
          <mxGeometry x="320" y="-880" width="90" height="100" as="geometry" />
        </mxCell>
        <mxCell id="Q-hOX0LVtWuQFFk8Bp9k-80" value="" style="rounded=0;whiteSpace=wrap;html=1;fillColor=#fff2cc;strokeColor=#d6b656;" vertex="1" parent="1">
          <mxGeometry x="320" y="-880" width="90" height="50" as="geometry" />
        </mxCell>
        <mxCell id="Q-hOX0LVtWuQFFk8Bp9k-81" value="name" style="text;html=1;strokeColor=none;fillColor=none;align=center;verticalAlign=middle;whiteSpace=wrap;rounded=0;" vertex="1" parent="1">
          <mxGeometry x="310" y="-830" width="60" height="30" as="geometry" />
        </mxCell>
        <mxCell id="Q-hOX0LVtWuQFFk8Bp9k-87" style="edgeStyle=orthogonalEdgeStyle;rounded=0;orthogonalLoop=1;jettySize=auto;html=1;entryX=1.007;entryY=0.67;entryDx=0;entryDy=0;entryPerimeter=0;fontSize=10;" edge="1" parent="1" source="Q-hOX0LVtWuQFFk8Bp9k-82" target="Q-hOX0LVtWuQFFk8Bp9k-17">
          <mxGeometry relative="1" as="geometry">
            <Array as="points">
              <mxPoint x="440" y="-800" />
              <mxPoint x="440" y="-932" />
            </Array>
          </mxGeometry>
        </mxCell>
        <mxCell id="Q-hOX0LVtWuQFFk8Bp9k-82" value="&lt;font style=&quot;font-size: 10px;&quot;&gt;karzina&lt;/font&gt;" style="html=1;shadow=0;dashed=0;shape=mxgraph.bootstrap.rrect;rSize=5;strokeColor=none;strokeWidth=1;fillColor=#1CA5B8;fontColor=#FFFFFF;whiteSpace=wrap;align=left;verticalAlign=middle;spacingLeft=0;fontStyle=1;fontSize=14;spacing=5;" vertex="1" parent="1">
          <mxGeometry x="360" y="-810" width="40" height="20" as="geometry" />
        </mxCell>
        <mxCell id="Q-hOX0LVtWuQFFk8Bp9k-83" value="" style="rounded=0;whiteSpace=wrap;html=1;" vertex="1" parent="1">
          <mxGeometry x="190" y="-880" width="90" height="100" as="geometry" />
        </mxCell>
        <mxCell id="Q-hOX0LVtWuQFFk8Bp9k-84" value="" style="rounded=0;whiteSpace=wrap;html=1;fillColor=#fff2cc;strokeColor=#d6b656;" vertex="1" parent="1">
          <mxGeometry x="190" y="-880" width="90" height="50" as="geometry" />
        </mxCell>
        <mxCell id="Q-hOX0LVtWuQFFk8Bp9k-85" value="name" style="text;html=1;strokeColor=none;fillColor=none;align=center;verticalAlign=middle;whiteSpace=wrap;rounded=0;" vertex="1" parent="1">
          <mxGeometry x="180" y="-830" width="60" height="30" as="geometry" />
        </mxCell>
        <mxCell id="Q-hOX0LVtWuQFFk8Bp9k-86" value="&lt;font style=&quot;font-size: 10px;&quot;&gt;karzina&lt;/font&gt;" style="html=1;shadow=0;dashed=0;shape=mxgraph.bootstrap.rrect;rSize=5;strokeColor=none;strokeWidth=1;fillColor=#1CA5B8;fontColor=#FFFFFF;whiteSpace=wrap;align=left;verticalAlign=middle;spacingLeft=0;fontStyle=1;fontSize=14;spacing=5;" vertex="1" parent="1">
          <mxGeometry x="230" y="-810" width="40" height="20" as="geometry" />
        </mxCell>
        <mxCell id="Q-hOX0LVtWuQFFk8Bp9k-89" value="" style="rounded=0;whiteSpace=wrap;html=1;" vertex="1" parent="1">
          <mxGeometry x="20" y="-680" width="430" height="260" as="geometry" />
        </mxCell>
        <mxCell id="Q-hOX0LVtWuQFFk8Bp9k-90" value="home" style="text;html=1;strokeColor=none;fillColor=none;align=center;verticalAlign=middle;whiteSpace=wrap;rounded=0;" vertex="1" parent="1">
          <mxGeometry x="30" y="-670" width="60" height="30" as="geometry" />
        </mxCell>
        <mxCell id="Q-hOX0LVtWuQFFk8Bp9k-91" value="" style="rounded=1;whiteSpace=wrap;html=1;" vertex="1" parent="1">
          <mxGeometry x="160" y="-665" width="120" height="20" as="geometry" />
        </mxCell>
        <mxCell id="Q-hOX0LVtWuQFFk8Bp9k-92" value="search" style="text;html=1;strokeColor=none;fillColor=none;align=center;verticalAlign=middle;whiteSpace=wrap;rounded=0;" vertex="1" parent="1">
          <mxGeometry x="160" y="-670" width="60" height="30" as="geometry" />
        </mxCell>
        <mxCell id="Q-hOX0LVtWuQFFk8Bp9k-93" value="Basket" style="html=1;shadow=0;dashed=0;shape=mxgraph.bootstrap.rrect;rSize=5;strokeColor=none;strokeWidth=1;fillColor=#0085FC;fontColor=#FFFFFF;whiteSpace=wrap;align=left;verticalAlign=middle;spacingLeft=0;fontStyle=1;fontSize=14;spacing=5;" vertex="1" parent="1">
          <mxGeometry x="360" y="-665" width="60" height="20" as="geometry" />
        </mxCell>
        <mxCell id="Q-hOX0LVtWuQFFk8Bp9k-94" value="" style="rounded=0;whiteSpace=wrap;html=1;" vertex="1" parent="1">
          <mxGeometry x="40" y="-600" width="90" height="100" as="geometry" />
        </mxCell>
        <mxCell id="Q-hOX0LVtWuQFFk8Bp9k-95" value="" style="rounded=0;whiteSpace=wrap;html=1;fillColor=#fff2cc;strokeColor=#d6b656;" vertex="1" parent="1">
          <mxGeometry x="40" y="-600" width="90" height="50" as="geometry" />
        </mxCell>
        <mxCell id="Q-hOX0LVtWuQFFk8Bp9k-96" value="name" style="text;html=1;strokeColor=none;fillColor=none;align=center;verticalAlign=middle;whiteSpace=wrap;rounded=0;" vertex="1" parent="1">
          <mxGeometry x="30" y="-550" width="60" height="30" as="geometry" />
        </mxCell>
        <mxCell id="Q-hOX0LVtWuQFFk8Bp9k-97" value="&lt;font style=&quot;font-size: 10px;&quot;&gt;karzina&lt;/font&gt;" style="html=1;shadow=0;dashed=0;shape=mxgraph.bootstrap.rrect;rSize=5;strokeColor=none;strokeWidth=1;fillColor=#1CA5B8;fontColor=#FFFFFF;whiteSpace=wrap;align=left;verticalAlign=middle;spacingLeft=0;fontStyle=1;fontSize=14;spacing=5;" vertex="1" parent="1">
          <mxGeometry x="80" y="-530" width="40" height="20" as="geometry" />
        </mxCell>
        <mxCell id="Q-hOX0LVtWuQFFk8Bp9k-98" value="" style="rounded=0;whiteSpace=wrap;html=1;" vertex="1" parent="1">
          <mxGeometry x="320" y="-600" width="90" height="100" as="geometry" />
        </mxCell>
        <mxCell id="Q-hOX0LVtWuQFFk8Bp9k-99" value="" style="rounded=0;whiteSpace=wrap;html=1;fillColor=#fff2cc;strokeColor=#d6b656;" vertex="1" parent="1">
          <mxGeometry x="320" y="-600" width="90" height="50" as="geometry" />
        </mxCell>
        <mxCell id="Q-hOX0LVtWuQFFk8Bp9k-100" value="name" style="text;html=1;strokeColor=none;fillColor=none;align=center;verticalAlign=middle;whiteSpace=wrap;rounded=0;" vertex="1" parent="1">
          <mxGeometry x="310" y="-550" width="60" height="30" as="geometry" />
        </mxCell>
        <mxCell id="Q-hOX0LVtWuQFFk8Bp9k-102" value="&lt;font style=&quot;font-size: 10px;&quot;&gt;karzina&lt;/font&gt;" style="html=1;shadow=0;dashed=0;shape=mxgraph.bootstrap.rrect;rSize=5;strokeColor=none;strokeWidth=1;fillColor=#1CA5B8;fontColor=#FFFFFF;whiteSpace=wrap;align=left;verticalAlign=middle;spacingLeft=0;fontStyle=1;fontSize=14;spacing=5;" vertex="1" parent="1">
          <mxGeometry x="360" y="-530" width="40" height="20" as="geometry" />
        </mxCell>
        <mxCell id="Q-hOX0LVtWuQFFk8Bp9k-103" value="" style="rounded=0;whiteSpace=wrap;html=1;" vertex="1" parent="1">
          <mxGeometry x="190" y="-600" width="90" height="100" as="geometry" />
        </mxCell>
        <mxCell id="Q-hOX0LVtWuQFFk8Bp9k-104" value="" style="rounded=0;whiteSpace=wrap;html=1;fillColor=#fff2cc;strokeColor=#d6b656;" vertex="1" parent="1">
          <mxGeometry x="190" y="-600" width="90" height="50" as="geometry" />
        </mxCell>
        <mxCell id="Q-hOX0LVtWuQFFk8Bp9k-105" value="name" style="text;html=1;strokeColor=none;fillColor=none;align=center;verticalAlign=middle;whiteSpace=wrap;rounded=0;" vertex="1" parent="1">
          <mxGeometry x="180" y="-550" width="60" height="30" as="geometry" />
        </mxCell>
        <mxCell id="Q-hOX0LVtWuQFFk8Bp9k-106" value="&lt;font style=&quot;font-size: 10px;&quot;&gt;karzina&lt;/font&gt;" style="html=1;shadow=0;dashed=0;shape=mxgraph.bootstrap.rrect;rSize=5;strokeColor=none;strokeWidth=1;fillColor=#1CA5B8;fontColor=#FFFFFF;whiteSpace=wrap;align=left;verticalAlign=middle;spacingLeft=0;fontStyle=1;fontSize=14;spacing=5;" vertex="1" parent="1">
          <mxGeometry x="230" y="-530" width="40" height="20" as="geometry" />
        </mxCell>
        <mxCell id="Q-hOX0LVtWuQFFk8Bp9k-107" value="" style="rounded=0;whiteSpace=wrap;html=1;strokeWidth=1;fontSize=10;fillColor=#dae8fc;strokeColor=#6c8ebf;" vertex="1" parent="1">
          <mxGeometry x="260" y="-640" width="160" height="160" as="geometry" />
        </mxCell>
        <mxCell id="Q-hOX0LVtWuQFFk8Bp9k-108" value="" style="rounded=0;whiteSpace=wrap;html=1;strokeWidth=1;fontSize=10;" vertex="1" parent="1">
          <mxGeometry x="270" y="-630" width="140" height="60" as="geometry" />
        </mxCell>
        <mxCell id="Q-hOX0LVtWuQFFk8Bp9k-109" value="" style="rounded=0;whiteSpace=wrap;html=1;strokeWidth=1;fontSize=10;fillColor=#fff2cc;strokeColor=#d6b656;" vertex="1" parent="1">
          <mxGeometry x="280" y="-620" width="40" height="40" as="geometry" />
        </mxCell>
        <mxCell id="Q-hOX0LVtWuQFFk8Bp9k-110" value="Text" style="text;html=1;strokeColor=none;fillColor=none;align=center;verticalAlign=middle;whiteSpace=wrap;rounded=0;strokeWidth=1;fontSize=10;" vertex="1" parent="1">
          <mxGeometry x="310" y="-614.5" width="60" height="30" as="geometry" />
        </mxCell>
        <mxCell id="Q-hOX0LVtWuQFFk8Bp9k-111" value="&lt;font style=&quot;font-size: 10px;&quot;&gt;Del&lt;/font&gt;" style="html=1;shadow=0;dashed=0;shape=mxgraph.bootstrap.rrect;rSize=5;strokeColor=none;strokeWidth=1;fillColor=#DB2843;fontColor=#FFFFFF;whiteSpace=wrap;align=center;verticalAlign=middle;spacingLeft=0;fontStyle=0;fontSize=16;spacing=5;" vertex="1" parent="1">
          <mxGeometry x="360" y="-609.5" width="40" height="20" as="geometry" />
        </mxCell>
        <mxCell id="Q-hOX0LVtWuQFFk8Bp9k-112" value="" style="rounded=0;whiteSpace=wrap;html=1;strokeWidth=1;fontSize=10;" vertex="1" parent="1">
          <mxGeometry x="270" y="-560" width="140" height="60" as="geometry" />
        </mxCell>
        <mxCell id="Q-hOX0LVtWuQFFk8Bp9k-113" value="" style="rounded=0;whiteSpace=wrap;html=1;strokeWidth=1;fontSize=10;fillColor=#fff2cc;strokeColor=#d6b656;" vertex="1" parent="1">
          <mxGeometry x="280" y="-550" width="40" height="40" as="geometry" />
        </mxCell>
        <mxCell id="Q-hOX0LVtWuQFFk8Bp9k-114" value="Text" style="text;html=1;strokeColor=none;fillColor=none;align=center;verticalAlign=middle;whiteSpace=wrap;rounded=0;strokeWidth=1;fontSize=10;" vertex="1" parent="1">
          <mxGeometry x="310" y="-545" width="60" height="30" as="geometry" />
        </mxCell>
        <mxCell id="Q-hOX0LVtWuQFFk8Bp9k-115" value="&lt;font style=&quot;font-size: 10px;&quot;&gt;Del&lt;/font&gt;" style="html=1;shadow=0;dashed=0;shape=mxgraph.bootstrap.rrect;rSize=5;strokeColor=none;strokeWidth=1;fillColor=#DB2843;fontColor=#FFFFFF;whiteSpace=wrap;align=center;verticalAlign=middle;spacingLeft=0;fontStyle=0;fontSize=16;spacing=5;" vertex="1" parent="1">
          <mxGeometry x="360" y="-540" width="40" height="20" as="geometry" />
        </mxCell>
        <mxCell id="Q-hOX0LVtWuQFFk8Bp9k-136" style="edgeStyle=orthogonalEdgeStyle;rounded=0;orthogonalLoop=1;jettySize=auto;html=1;entryX=0;entryY=0;entryDx=0;entryDy=0;strokeColor=#0600BF;fontSize=8;" edge="1" parent="1" source="Q-hOX0LVtWuQFFk8Bp9k-116" target="Q-hOX0LVtWuQFFk8Bp9k-123">
          <mxGeometry relative="1" as="geometry" />
        </mxCell>
        <mxCell id="Q-hOX0LVtWuQFFk8Bp9k-116" value="" style="rounded=0;whiteSpace=wrap;html=1;strokeWidth=1;fontSize=10;" vertex="1" parent="1">
          <mxGeometry x="480" y="-960" width="470" height="260" as="geometry" />
        </mxCell>
        <mxCell id="Q-hOX0LVtWuQFFk8Bp9k-118" value="Admin" style="text;html=1;strokeColor=none;fillColor=none;align=center;verticalAlign=middle;whiteSpace=wrap;rounded=0;strokeWidth=1;fontSize=10;" vertex="1" parent="1">
          <mxGeometry x="480" y="-955" width="60" height="30" as="geometry" />
        </mxCell>
        <mxCell id="Q-hOX0LVtWuQFFk8Bp9k-119" value="&lt;h1 style=&quot;text-align: center;&quot;&gt;Product&lt;/h1&gt;&lt;p style=&quot;text-align: center;&quot;&gt;Product not&lt;/p&gt;" style="text;html=1;strokeColor=none;fillColor=none;spacing=5;spacingTop=-20;whiteSpace=wrap;overflow=hidden;rounded=0;strokeWidth=1;fontSize=10;" vertex="1" parent="1">
          <mxGeometry x="670" y="-880" width="90" height="55" as="geometry" />
        </mxCell>
        <mxCell id="Q-hOX0LVtWuQFFk8Bp9k-120" value="Add Product" style="rounded=1;whiteSpace=wrap;html=1;arcSize=50;strokeColor=none;strokeWidth=1;fillColor=#0085FC;fontColor=#FFFFFF;whiteSpace=wrap;align=center;verticalAlign=middle;spacingLeft=0;fontStyle=1;fontSize=14;spacing=10;" vertex="1" parent="1">
          <mxGeometry x="662.5" y="-810" width="105" height="30" as="geometry" />
        </mxCell>
        <mxCell id="Q-hOX0LVtWuQFFk8Bp9k-131" style="edgeStyle=orthogonalEdgeStyle;rounded=0;orthogonalLoop=1;jettySize=auto;html=1;entryX=0.5;entryY=0;entryDx=0;entryDy=0;strokeColor=#0600BF;fontSize=8;" edge="1" parent="1" source="Q-hOX0LVtWuQFFk8Bp9k-121" target="Q-hOX0LVtWuQFFk8Bp9k-128">
          <mxGeometry relative="1" as="geometry" />
        </mxCell>
        <mxCell id="Q-hOX0LVtWuQFFk8Bp9k-121" value="" style="rounded=0;whiteSpace=wrap;html=1;strokeWidth=1;fontSize=10;" vertex="1" parent="1">
          <mxGeometry x="480" y="-660" width="470" height="260" as="geometry" />
        </mxCell>
        <mxCell id="Q-hOX0LVtWuQFFk8Bp9k-122" value="Admin" style="text;html=1;strokeColor=none;fillColor=none;align=center;verticalAlign=middle;whiteSpace=wrap;rounded=0;strokeWidth=1;fontSize=10;" vertex="1" parent="1">
          <mxGeometry x="480" y="-655" width="60" height="30" as="geometry" />
        </mxCell>
        <mxCell id="Q-hOX0LVtWuQFFk8Bp9k-123" value="" style="rounded=0;whiteSpace=wrap;html=1;strokeWidth=1;fontSize=10;fillColor=#dae8fc;strokeColor=#6c8ebf;" vertex="1" parent="1">
          <mxGeometry x="720" y="-660" width="230" height="260" as="geometry" />
        </mxCell>
        <mxCell id="Q-hOX0LVtWuQFFk8Bp9k-124" value="img" style="rounded=0;whiteSpace=wrap;html=1;strokeWidth=1;fontSize=10;fillColor=#fff2cc;strokeColor=#d6b656;" vertex="1" parent="1">
          <mxGeometry x="796.25" y="-640" width="67.5" height="60" as="geometry" />
        </mxCell>
        <mxCell id="Q-hOX0LVtWuQFFk8Bp9k-125" value="" style="rounded=1;whiteSpace=wrap;html=1;strokeWidth=1;fontSize=10;" vertex="1" parent="1">
          <mxGeometry x="770" y="-545" width="120" height="15" as="geometry" />
        </mxCell>
        <mxCell id="Q-hOX0LVtWuQFFk8Bp9k-126" value="" style="rounded=1;whiteSpace=wrap;html=1;strokeWidth=1;fontSize=10;" vertex="1" parent="1">
          <mxGeometry x="770" y="-510" width="120" height="15" as="geometry" />
        </mxCell>
        <mxCell id="Q-hOX0LVtWuQFFk8Bp9k-127" value="&lt;font style=&quot;font-size: 8px;&quot;&gt;Add Product&lt;/font&gt;" style="rounded=1;whiteSpace=wrap;html=1;arcSize=50;strokeColor=none;strokeWidth=1;fillColor=#0085FC;fontColor=#FFFFFF;whiteSpace=wrap;align=center;verticalAlign=middle;spacingLeft=0;fontStyle=1;fontSize=14;spacing=10;" vertex="1" parent="1">
          <mxGeometry x="793.75" y="-460" width="72.5" height="20" as="geometry" />
        </mxCell>
        <mxCell id="Q-hOX0LVtWuQFFk8Bp9k-128" value="" style="rounded=0;whiteSpace=wrap;html=1;strokeWidth=1;fontSize=10;" vertex="1" parent="1">
          <mxGeometry x="480" y="-370" width="470" height="260" as="geometry" />
        </mxCell>
        <mxCell id="Q-hOX0LVtWuQFFk8Bp9k-137" value="" style="rounded=0;whiteSpace=wrap;html=1;strokeWidth=1;fontSize=8;" vertex="1" parent="1">
          <mxGeometry x="510" y="-310" width="400" height="60" as="geometry" />
        </mxCell>
        <mxCell id="Q-hOX0LVtWuQFFk8Bp9k-138" value="Admin" style="text;html=1;strokeColor=none;fillColor=none;align=center;verticalAlign=middle;whiteSpace=wrap;rounded=0;strokeWidth=1;fontSize=10;" vertex="1" parent="1">
          <mxGeometry x="480" y="-360" width="60" height="30" as="geometry" />
        </mxCell>
        <mxCell id="Q-hOX0LVtWuQFFk8Bp9k-139" value="" style="rounded=0;whiteSpace=wrap;html=1;strokeWidth=1;fontSize=8;" vertex="1" parent="1">
          <mxGeometry x="520" y="-300" width="50" height="40" as="geometry" />
        </mxCell>
        <mxCell id="Q-hOX0LVtWuQFFk8Bp9k-140" value="name" style="text;html=1;strokeColor=none;fillColor=none;align=center;verticalAlign=middle;whiteSpace=wrap;rounded=0;strokeWidth=1;fontSize=8;" vertex="1" parent="1">
          <mxGeometry x="580" y="-295" width="60" height="30" as="geometry" />
        </mxCell>
        <mxCell id="Q-hOX0LVtWuQFFk8Bp9k-141" value="sum" style="text;html=1;strokeColor=none;fillColor=none;align=center;verticalAlign=middle;whiteSpace=wrap;rounded=0;strokeWidth=1;fontSize=8;" vertex="1" parent="1">
          <mxGeometry x="640" y="-295" width="60" height="30" as="geometry" />
        </mxCell>
        <mxCell id="Q-hOX0LVtWuQFFk8Bp9k-142" value="Chanj" style="html=1;shadow=0;dashed=0;shape=mxgraph.bootstrap.rrect;rSize=5;strokeColor=none;strokeWidth=1;fillColor=#33A64C;fontColor=#FFFFFF;whiteSpace=wrap;align=left;verticalAlign=middle;spacingLeft=0;fontStyle=1;fontSize=14;spacing=5;" vertex="1" parent="1">
          <mxGeometry x="796.25" y="-290" width="50" height="20" as="geometry" />
        </mxCell>
        <mxCell id="Q-hOX0LVtWuQFFk8Bp9k-143" value="Dell" style="html=1;shadow=0;dashed=0;shape=mxgraph.bootstrap.rrect;rSize=5;strokeColor=none;strokeWidth=1;fillColor=#DB2843;fontColor=#FFFFFF;whiteSpace=wrap;align=left;verticalAlign=middle;spacingLeft=0;fontStyle=1;fontSize=14;spacing=5;" vertex="1" parent="1">
          <mxGeometry x="863.75" y="-290" width="36.25" height="20" as="geometry" />
        </mxCell>
      </root>
    </mxGraphModel>
  </diagram>
</mxfile>
